[Header]
FileType HTR
DataType HTRS
FileVersion 1
NumSegments 22
NumFrames 4
DataFrameRate 24
EulerRotationOrder ZYX
CalibrationUnits mm
RotationUnits Degrees
GlobalAxisofGravity Y
BoneLengthAxis Y
ScaleFactor 1.0
[SegmentNames&Hierarchy]
reference	GLOBAL
Hips	reference
Spine	Hips
Spine1	Spine
Neck	Spine1
Head	Neck
LeftShoulder	Spine1
LeftArm	LeftShoulder
LeftForeArm	LeftArm
LeftHand	LeftForeArm
RightShoulder	Spine1
RightArm	RightShoulder
RightForeArm	RightArm
RightHand	RightForeArm
LeftUpLeg	Hips
LeftLeg	LeftUpLeg
LeftFoot	LeftLeg
LeftToeBase	LeftFoot
RightUpLeg	Hips
RightLeg	RightUpLeg
RightFoot	RightLeg
RightToeBase	RightFoot
[BasePosition]
reference	0	0	0	0	0	0	1
Hips	0	0	0	0	0	0	1
Spine	0	0	0	0	-0	90	1
Spine1	0	0	0	0	0	0	1
Neck	0	0	0	-7.352327771	-7.352327771	90	1
Head	0	0	0	0	-0	90	1
LeftShoulder	0	0	0	0	0	0	1
LeftArm	0	0	0	0	0	0	1
LeftForeArm	0	0	0	0	0	0	1
LeftHand	0	0	0	0	0	0	1
RightShoulder	0	0	0	0	-0	180	1
RightArm	0	0	0	0	-0	180	1
RightForeArm	0	0	0	0	-0	180	1
RightHand	0	0	0	0	-0	180	1
LeftUpLeg	0	0	0	0	-0	-90	1
LeftLeg	0	0	0	0	-0	-90	1
LeftFoot	0	0	0	66.57146043	-66.57146043	-90	1
LeftToeBase	0	0	0	0	-90	0	1
RightUpLeg	0	0	0	0	-0	-90	1
RightLeg	0	0	0	0	-0	-90	1
RightFoot	0	0	0	66.57146043	-66.57146043	-90	1
RightToeBase	0	0	0	0	-90	0	1
[reference]
82	0	0	0	0	-0	0	1.0
83	0	0	0	0	-0	0	1.0
84	0	0	0	0	-0	0	1.0
85	0	0	0	0	-0	0	1.0
[Hips]
82	2.651621819	8.425660133	1.457893252	-22.61151314	-97.2401886	30.56858253	1.0
83	2.586042643	8.524076462	1.453012466	-10.19060421	-102.9129333	17.0118618	1.0
84	2.515867949	8.562133789	1.448577762	-4.620145798	-110.738472	9.634858131	1.0
85	2.501208782	8.578884125	1.44449687	-1.275314331	-119.9268188	6.537353516	1.0
[Spine]
82	0	0.7457100153	0	-4.98132658	2.21509409	-88.46393585	1.0
83	0	0.7457100153	0	-3.868474722	-2.181405544	-91.88249207	1.0
84	0	0.7457100153	0	-1.813109875	-5.888924599	-94.71512604	1.0
85	0	0.7457100153	0	-3.325298548	-6.411706924	-94.80847168	1.0
[Spine1]
82	0	2.140589952	0	-0.2040717155	0.7180269957	-0.6186131239	1.0
83	0	2.140589952	0	-1.277915359	-0.6505900025	6.123064041	1.0
84	0	2.140589952	0	-2.227443933	-1.671949267	10.91579247	1.0
85	0	2.140589952	0	-0.5337202549	-2.036931753	11.85516071	1.0
[Neck]
82	0	2.32246995	0	-18.47912216	0.9626669288	-91.75112152	1.0
83	0	2.32246995	0	-17.52059555	4.985842228	-93.62461853	1.0
84	0	2.32246995	0	-15.96391392	12.45651722	-97.40784454	1.0
85	0	2.32246995	0	-16.84747124	16.43608475	-99.95183563	1.0
[Head]
82	0	1.409579992	0.1818799973	2.246072531	-5.579143047	-90.35350037	1.0
83	0	1.409579992	0.1818799973	2.704625368	1.979397655	-92.19460297	1.0
84	0	1.409579992	0.1818799973	3.24074316	5.501225471	-87.98713684	1.0
85	0	1.409579992	0.1818799973	1.598123908	10.11977291	-87.93609619	1.0
[LeftShoulder]
82	0.3668199778	1.946700096	-0.02662999928	-23.4525528	-15.88685799	8.135578156	1.0
83	0.3668199778	1.946700096	-0.02662999928	-21.84051132	-16.56640816	9.984884262	1.0
84	0.3668199778	1.946700096	-0.02662999928	-18.19729996	-18.06641388	9.962569237	1.0
85	0.3668199778	1.946700096	-0.02662999928	-17.94248772	-14.65908241	9.176328659	1.0
[LeftArm]
82	1.140689969	0	0	42.64582825	-29.11695862	-61.29964828	1.0
83	1.140689969	0	0	40.76536179	-41.01830673	-53.86176682	1.0
84	1.140689969	0	0	32.62950897	-52.23082733	-39.62363052	1.0
85	1.140689969	0	0	22.08349991	-44.72848511	-40.67693329	1.0
[LeftForeArm]
82	2.749800205	0	0	72.53430939	-121.7946472	-42.25895691	1.0
83	2.749800205	0	0	151.2183075	-127.3860092	-118.2399521	1.0
84	2.749800205	0	0	172.2313232	-163.0824585	-163.371582	1.0
85	2.749800205	0	0	158.8040619	-159.2837982	-160.3405151	1.0
[LeftHand]
82	2.295179844	0	0	2.912670612	4.752941608	-1.472995758	1.0
83	2.295179844	0	0	4.304645061	4.381130695	3.505787373	1.0
84	2.295179844	0	0	-5.360547543	8.655813217	-1.195518255	1.0
85	2.295179844	0	0	-17.40237236	10.75808525	1.769925833	1.0
[RightShoulder]
82	-0.3601199985	1.946700096	-0.02662999928	-8.915130615	8.731888771	170.1332245	1.0
83	-0.3601199985	1.946700096	-0.02662999928	-8.821493149	8.679891586	172.9949341	1.0
84	-0.3601199985	1.946700096	-0.02662999928	-8.973039627	9.340652466	175.40979	1.0
85	-0.3601199985	1.946700096	-0.02662999928	-8.854772568	9.858944893	174.8207855	1.0
[RightArm]
82	-1.140689969	0	0	52.47195435	36.70219421	-116.7435226	1.0
83	-1.140689969	0	0	52.61136246	28.96323586	-109.6836395	1.0
84	-1.140689969	0	0	54.54272461	22.54771423	-105.3292084	1.0
85	-1.140689969	0	0	56.36190033	19.22152328	-102.5464478	1.0
[RightForeArm]
82	-2.749800205	0	0	-29.60389328	32.5124054	99.03462219	1.0
83	-2.749800205	0	0	-47.31687927	41.71381378	81.52099609	1.0
84	-2.749800205	0	0	-57.86142731	46.12374878	75.37187195	1.0
85	-2.749800205	0	0	-62.30620575	48.40171814	74.15618896	1.0
[RightHand]
82	-2.295179844	0	0	-1.692863226	1.800640225	171.0345001	1.0
83	-2.295179844	0	0	0.02284918725	4.115459919	169.9046631	1.0
84	-2.295179844	0	0	-0.7846618295	6.136894226	168.7345123	1.0
85	-2.295179844	0	0	-1.667850614	9.308255196	169.6798706	1.0
[LeftUpLeg]
82	0.9094099998	0	0	-27.8182869	-11.57692909	95.39154816	1.0
83	0.9094099998	0	0	-24.29386139	-13.40839577	97.25050354	1.0
84	0.9094099998	0	0	-19.56080246	-10.32983589	95.31674194	1.0
85	0.9094099998	0	0	-17.82204056	-5.686427593	93.98708344	1.0
[LeftLeg]
82	0	-4.498080254	0	40.16687775	-11.50280285	79.38857269	1.0
83	0	-4.498080254	0	35.3158226	-3.236300707	82.1134491	1.0
84	0	-4.498080254	0	32.56429291	-0.8577706814	85.59196472	1.0
85	0	-4.498080254	0	32.69202805	-1.490506291	86.83178711	1.0
[LeftFoot]
82	0	-3.729400158	0	-84.745224	106.6953964	-32.32602692	1.0
83	0	-3.729400158	0	-88.33120728	104.4895782	-38.10538101	1.0
84	0	-3.729400158	0	-93.38316345	103.7054825	-44.84622574	1.0
85	0	-3.729400158	0	-90.25868988	104.7328796	-40.15716553	1.0
[LeftToeBase]
82	0	-0.5911099911	1.364109993	0	0	0	1.0
83	0	-0.5911099911	1.364109993	0	0	0	1.0
84	0	-0.5911099911	1.364109993	0	0	0	1.0
85	0	-0.5911099911	1.364109993	0	0	0	1.0
[RightUpLeg]
82	-0.9094099998	0	0	14.34820843	-37.5911026	78.02793121	1.0
83	-0.9094099998	0	0	10.7213707	-35.64865112	76.83927917	1.0
84	-0.9094099998	0	0	6.989675999	-30.68429375	76.47225952	1.0
85	-0.9094099998	0	0	2.574130774	-20.18323517	78.33187103	1.0
[RightLeg]
82	0	-4.498080254	0	23.49329185	-5.600545406	86.36972046	1.0
83	0	-4.498080254	0	27.90458298	-1.281923294	85.73272705	1.0
84	0	-4.498080254	0	31.20517349	4.158668041	85.64302063	1.0
85	0	-4.498080254	0	32.66765213	4.885128498	84.49656677	1.0
[RightFoot]
82	0	-3.729400158	0	98.87866974	44.61473083	127.0145569	1.0
83	0	-3.729400158	0	104.2193832	44.02085495	124.7579346	1.0
84	0	-3.729400158	0	105.2244415	43.90054321	120.3640366	1.0
85	0	-3.729400158	0	102.6597595	42.8923111	118.5534592	1.0
[RightToeBase]
82	0	-0.5911099911	1.364109993	0	0	0	1.0
83	0	-0.5911099911	1.364109993	0	0	0	1.0
84	0	-0.5911099911	1.364109993	0	0	0	1.0
85	0	-0.5911099911	1.364109993	0	0	0	1.0
[EndOfFile]
